<?xml version="1.0" encoding="UTF-8"?>
<svg xmlns="http://www.w3.org/2000/svg" viewBox="0 0 930.46 705.21">
  <defs>
    <style>
      .cls-1 {
        fill: #231f20;
      }

      .cls-2 {
        fill: #eeddbf;
      }
    </style>
  </defs>
  <g id="Layer_1">
    <g>
      <path class="cls-2" d="M126.22,608.27c-8.38-21.27-29.42-35.46-50.94-41.03-11.02-2.86-22.48-2.84-33.79-2.88-13.83-.06-27.66-.01-41.5-.03v139.6c17.07.02,34.15.18,51.22-.03,15.78-.2,31.45-4.09,45.31-11.67,18.45-10.08,30.71-27.94,33.61-48.8,1.55-11.17.49-22.81-3.25-33.37-.21-.59-.43-1.18-.66-1.77ZM7.7,618.91c0-2.29,0-4.58,0-6.88,0,2.29,0,4.58,0,6.88ZM7.7,640.83c0,2.06,0,4.12,0,6.18,0,1.85-.01,3.7-.01,5.54,0-3.91.01-7.82.02-11.73ZM1.21,702.23c.7-1.49,1.35-3.01,1.89-4.56.65-1.88.88-3.97,1.81-5.68.87-1.59,1.52-3.27,1.96-4.96,0,.03-.02.07-.02.1-1.34,5.07-3.39,10.36-5.63,15.11ZM7.19,685.61c.24-1.28.37-2.57.38-3.82.05-6.7.07-13.4.09-20.1,0,2.02,0,4.04-.02,6.06-.02,5.75.68,12.13-.46,17.86ZM6.95,686.67c.08-.33.16-.66.22-.99-.07.33-.14.66-.22.99ZM95.22,654.95c-2.03,9.13-5.41,17.94-10.9,25.58-4.76,6.62-10.88,12.1-18.25,15.64-3.82,1.84-7.9,3.14-12.07,3.92-1.08.2-12.23,1.66-12.35.79-.57-4.06-.07-8.56-.07-12.68v-120.69c4.3,0,8.51-.39,12.6.12,22.85,2.85,37.72,26.52,41.31,47.39,2.25,13.1,2.63,26.9-.27,39.93Z"/>
      <path class="cls-2" d="M329.34,562.87c-6.08,0-12.17-.03-18.25,0-4.83.02-10.58-1.28-13.7,3.25-1.49,2.17-2.6,4.61-4.1,6.76-2.72,3.92-5.43,7.84-8.14,11.76-10.06,14.6-20.42,28.99-30.42,43.63-4.84,7.1-9.99,14.2-14.37,21.56-4.41,7.4-8.77,14.82-14.05,21.65-6.41,8.3-12.71,15.54-23.09,18.61-2.18.64-4.42,1.14-6.7,1.16-5.66.06-11.5-2.28-15.91-5.7-3.11-2.41-5.35-5.44-5.36-9.65-.02-22.41-.05-44.82-.07-67.23,0-1,.07-2,.1-3,10.78,4.66,21.71,9.41,30.91,16.73,4.77,3.79,9,8.22,13.21,12.63.89-4.39.58-8.81.58-13.25,0-4.82,0-9.64-.03-14.46,0-.77-.19-1.6-.52-2.27-.57,1-1.38,1.81-2.53,2.14-2.89.84-6.81.14-9.8.21-3.67.08-7.35.18-10.99-.34-5.45-.78-10.72-2.77-15.31-5.82-6.04-4.01-6.72-14.15-5.26-20.61,1.62-7.17,6.81-12.69,14.26-13.66,18.22-2.38,33.35,14.56,40.17,29.46.16.35.34.73.67.91,1.24.7.4-6.1.35-7.06-.17-2.97-.3-5.94-.45-8.9-.08-1.55-.85-16.89-1.71-16.89-12.61,0-25.21,0-37.81-.11-18.49-.17-36.98-.06-55.47.33-1.75.04-.9,1.18-.52,2.17.68,1.79,1.37,3.59,2.03,5.39.58,1.6,1.15,3.21,1.63,4.84.95,3.24,2.61,6.48,2.63,9.74.02,3.14.04,6.28.05,9.43.09,18.48.09,36.97.09,55.45,0,9,.14,18.01.06,27-.08,8.22-3.71,15.92-6.43,23.38-.29.79-.65,1.55-.98,2.32,2.28.65,3.88.63,6.27.57,1.85-.05,3.7-.09,5.54-.14,18.47-.43,36.94-.63,55.41-.72,9.24-.04,18.47-.06,27.71-.07,8.59,0,17.79-.94,26.25.76.89.18,1.82.39,2.7.15,3.88-1.06-2.07-8.83-2.84-10.82-3.65-9.42-4.47-22.5-.7-31.98,3.77-9.49,13.97-15.66,22.32-20.67,2.7-1.62,5.46-3.14,8.28-4.55,1.65-.83,2.73-1.43,3.35-1.14.5.23.7,1.04.67,2.77-.24,12.86-.72,25.46-2.06,38.28-.51,4.88-1.02,9.82-2.52,14.51-1.37,4.29-3.57,8.41-5.37,12.54.6.28,1.68,1.21,2.76,1.22,14.95.1,29.89.08,44.84.01.76,0,2-.62,2.17-1.2.27-.92.04-2.14-.36-3.07-.67-1.57-1.91-2.93-2.41-4.53-1.2-3.86-2.44-7.77-3.07-11.75-.85-5.39-1.56-10.86-1.59-16.3-.17-23.94-.17-47.89,0-71.83.08-12.01,3.65-22.53,7.9-33.6ZM290.77,596.89c.04,3.26,0,6.53-.12,9.79-.23,6.7-.76,13.38-1.47,20.05-.36,3.42-2.53,4.72-5.65,6.05-9.76,4.15-18.73,10.17-26.27,17.62,0-.02-.01-.04-.02-.07-1.29-4.12,1.67-9.1,3.38-12.67,2.31-4.83,4.37-9.78,6.77-14.57,5.16-10.32,11.11-20.24,17.82-29.63,1.57-2.2,3.72-3.94,5.02-6.35.97,2.73.51,6.82.54,9.78Z"/>
      <path class="cls-2" d="M895.42,635.46c-5.64-11.14-10.2-22.83-15.28-34.23-.69-1.54-1.37-3.09-2.16-4.59-.77-1.48-2.13-2.48-.63-3.77,13.27-11.5,27.29-21.88,41.86-31.66.16-.11,5.13-3.81,4.34-4.14-.82-.34-2.03-.17-2.98-.17-8.99,0-17.99-.25-26.98.04-1.18.04-11.3-.22-11.74,1-2.94,8.25-5.9,16.11-10.39,23.64-4.46,7.49-9.14,14.85-14.03,22.07-14.01,20.68-27.69,41.71-35.74,65.58-.44,1.31-1.29,2.91-2.67,2.72,4.93-23.95,9.87-47.9,14.8-71.86,2.98-14.47,6.09-29.27,13.84-41.85-1.84-1.32-4.28-1.37-6.55-1.37-12.94.02-25.88.04-38.82.06-.78,0-1.63.03-2.21.55-1.13,1.01-.35,2.85.41,4.16,6.54,11.36,6.72,25.15,6.73,38.25l.04,53.6c.01,16.67-.2,34.21-8.51,48.66,17.68.03,35.37.06,53.05.09-1.26-6.26-4.01-12.11-5.83-18.23-1.81-6.11-3.21-12.34-3.99-18.67-1.28-10.3-.72-20.65,1.7-30.74.51-2.12,3.68-15,7.65-12.05.56.41.95,2.5,1.31,3.31.58,1.3,1.19,2.59,1.81,3.87,2.55,5.23,5.41,10.3,7.91,15.56,7.87,16.53,15.55,34.17,18.19,52.41.13.92.03,3.2.57,3.92.61.81,1.44.56,2.56.56,5.24,0,10.49,0,15.73.01,10.35,0,20.7.01,31.05.01-13.22-21.39-23.71-44.35-35.05-66.76Z"/>
      <path class="cls-2" d="M467.79,607.31c-11.64-26.94-41.75-43.99-70.55-44.31-17.58-.19-35.17-.13-52.76-.16-.5,0-1,.07-2.06.16,1.15,4.03,3.28,7.55,4.67,11.55,1.43,4.15,2.32,8.47,2.83,12.82,1.24,10.6.54,21.47.54,32.12,0,10.84-.03,21.67-.03,32.51-.01,8.33.56,16.65-.58,24.94-1.12,8.15-3.39,16.09-5.97,23.88-.62,1.88-1.14,3.29.59,3.85,1.64.53,4.86-.34,6.63-.41,4.21-.17,8.43-.17,12.65-.13,8.44.09,16.88.39,25.31.05,26.92-1.09,55.26-8.8,71.78-31.88,9.94-13.89,13.92-31.92,11.55-48.71-.79-5.6-2.36-11.09-4.61-16.28ZM421.51,685.19c-9.16,10-21.04,14.58-34.4,15.75-1.88.16-2.98.19-3.58-.42-.43-.44-.6-1.23-.6-2.54.01-7.57,0-15.13,0-22.69v-55.03c0-4.62.94-54.28,0-54.39,3.06.37,5.92-.09,8.95.54,3.1.65,6.14,1.11,9.16,2.12,24.46,8.13,36.29,33.66,37.29,57.94.88,21.39-1.79,42.33-16.82,58.73Z"/>
      <path class="cls-2" d="M634.25,651.31c-.46.99-.55,1.5-.85,1.8-2.61,2.58-5.16,5.22-7.92,7.63-13.71,12.02-32.04,19.69-49.59,24.05-12.84,3.19-25.96,3.72-39.09,4.71-1.97.15-3.96.3-5.89-.12-2.04-.44-3.58-.94-3.59-3.14-.03-18.07-.39-36.14.03-54.2.43-18.61-1.9-37.46,1.76-55.88,1.26-6.32,4.03-11.82,6.16-17.8-16.76,0-33.04,0-49.74,0,.84,2.08,1.56,3.89,2.31,5.69,7.28,17.52,5.68,35.77,5.71,54.31.03,18.41-.02,36.83-.1,55.24-.04,8.95-3.41,17.67-7.32,25.58-.71,1.43-.11,1.65,1.26,1.7,17.67,0,35.27.4,52.93.88,18.45.5,36.9.84,55.35,1.02,17.88.17,35.73,1.3,53.62,1.12.98,0,8.31-.9,8.86-.39-15.02-13.94-19.34-33.11-23.91-52.2Z"/>
      <path class="cls-2" d="M794.63,654.93c-2.2,1.88-3.56,5.45-5.45,7.73-2.1,2.54-4.46,4.87-7.02,6.95-4.97,4.03-10.7,7.11-16.8,9.06-16.48,5.26-34.2,1.38-49.18-6.49-7.68-4.03-14.21-9.97-19.61-16.71-14.75-18.44-20.48-43.07-13.8-65.91,3.06-10.45,8.52-19.59,18.08-25.22,8.64-5.09,19.19-6.59,28.85-3.84,14.46,4.11,26.66,13.19,36.04,24.8,8.94,11.08,15.21,23.92,20.79,36.94.88-5.08.38-10.91.49-16.12.12-5.21.2-10.59.25-15.7l.09-10.82c.02-2.67.63-6.11-.84-8.52-.67-1.09-1.84-1.76-2.96-2.37-3.46-1.86-7.02-3.56-10.64-5.08-22.92-9.65-49.36-12.09-73.16-4.15-21.31,7.11-39.24,22.85-47.45,43.99-3.68,9.48-5.36,19.74-4.46,29.89,1.32,14.88,5.73,29.15,15.16,40.92,14.17,17.69,37.15,28.41,59.63,29.41,22.64,1,44.63-8.16,59.33-25.55,2.99-3.53,5.68-7.32,8.04-11.3,1.76-2.98,5.69-8.16,4.64-11.78-.01-.04-.02-.08-.04-.12Z"/>
      <path class="cls-2" d="M541.12,604.99c.86,15.72,8.94,29.28,21.84,38.18,8.29,5.72,17.87,8.84,28.24,8.57,11.1-.29,21.8-3.64,30.45-10.74,11.66-9.57,19.72-25.16,19.28-40.38-.02-.79-.06-1.58-.12-2.37-.67-9.72-4.08-19.1-10.01-26.85-8.74-11.41-22.42-19-36.84-19.48-4.21-.14-8.44.21-12.58.95-12.48,2.21-23.11,8.75-30.34,19.21-6.41,9.26-10.27,19.46-9.99,31.1.01.6.04,1.2.07,1.8ZM566.8,573.43c1.23-5.48,3.87-11.94,9.49-14.15,2.94-1.16,6.32-.67,9.21.61,7.9,3.51,14.07,11.01,18.7,18.04,10.36,15.72,17.62,40.01,9.02,58.09-1.01,2.13-2.31,4.22-4.1,5.79-10.13,8.86-24.61-7.04-30.17-14.71-1.37-1.89-2.64-3.87-3.79-5.9-5.96-10.5-9.7-23.43-9.65-35.92.02-4.03.43-8.01,1.29-11.85Z"/>
    </g>
  </g>
</svg>
