<?xml version="1.0" encoding="UTF-8"?>
<svg xmlns="http://www.w3.org/2000/svg" viewBox="0 0 930.46 705.21">
  <defs>
    <style>
      .cls-1 {
        fill: #231f20;
      }

      .cls-2 {
        fill: #eeddbf;
      }
    </style>
  </defs>
  <g id="Layer_2">
    <g>
      <circle class="cls-2" cx="477.56" cy="246.12" r="246.12"/>
      <path class="cls-1" d="M231.44,246.16c0,1.19.03,2.38.07,3.57h492.09c.05-1.19.07-2.37.07-3.57s-.03-2.29-.07-3.43H231.51c-.04,1.14-.07,2.29-.07,3.43Z"/>
      <path class="cls-1" d="M474.33,492.17c1.11.04,2.22.07,3.33.07,1.23,0,2.45-.03,3.67-.08V.08c-1.22-.05-2.44-.08-3.67-.08-1.11,0-2.22.03-3.33.07v492.1Z"/>
      <path class="cls-1" d="M478.56,37.67c115.12,0,208.44,93.32,208.44,208.44s-93.32,208.44-208.44,208.44-208.44-93.32-208.44-208.44S363.43,37.67,478.56,37.67M478.56,30.67c-29.08,0-57.3,5.7-83.86,16.93-25.66,10.85-48.7,26.38-68.48,46.17s-35.32,42.82-46.17,68.48c-11.24,26.57-16.93,54.78-16.93,83.86s5.7,57.3,16.93,83.86c10.85,25.66,26.38,48.7,46.17,68.48,19.78,19.78,42.82,35.32,68.48,46.17,26.57,11.24,54.78,16.93,83.86,16.93s57.3-5.7,83.86-16.93c25.66-10.85,48.7-26.38,68.48-46.17,19.78-19.78,35.32-42.82,46.17-68.48,11.24-26.57,16.93-54.78,16.93-83.86s-5.7-57.3-16.93-83.86c-10.85-25.66-26.38-48.7-46.17-68.48s-42.82-35.32-68.48-46.17c-26.57-11.24-54.78-16.93-83.86-16.93h0Z"/>
      <path class="cls-1" d="M600.9,123.33c12.82-9.18,26.51-15.17,42.89-11.27l-31.2-31.51c2.58,17.36-2.21,31.13-11.69,42.78Z"/>
      <path class="cls-1" d="M358.62,123.81c-11.62-18.28-16.92-33.36-11.28-42.89l-31.5,31.21c12.88-6.9,27.5-.19,42.78,11.68Z"/>
      <path class="cls-1" d="M358.25,368c-15.21,13.81-29.8,20.46-42.98,10.91l30.94,31.77c-5.11-8.74-.8-23.15,12.04-42.68Z"/>
      <path class="cls-1" d="M600.92,364.89c10.12,15.54,13.28,31.07,11.12,44.04l31.62-31.09c-10.88,2.75-25.7-6.48-42.74-12.95Z"/>
      <rect class="cls-1" x="370.52" y="76.91" width="8" height="126.7" transform="translate(737.49 -27.63) rotate(134.65)"/>
      <rect class="cls-1" x="578.65" y="78.95" width="8" height="126.7" transform="translate(900.96 650.63) rotate(-135.78)"/>
      <rect class="cls-1" x="579.97" y="285.24" width="8" height="126.7" transform="translate(-68.54 540.33) rotate(-47.21)"/>
      <rect class="cls-1" x="370.13" y="288.25" width="8" height="126.7" transform="translate(343.07 -160.88) rotate(43.31)"/>
      <path class="cls-1" d="M324.22,246.23c55.58-41.62,106-81.43,154.33-81,46.66-.3,96.65,28.89,149.22,80.89-54.42,50.2-105.15,81.72-149.94,83.11-48.72,1.78-100.53-33.05-153.61-83Z"/>
      <circle class="cls-2" cx="477.56" cy="246.12" r="60.03"/>
      <circle class="cls-1" cx="477.56" cy="246.12" r="34.67"/>
    </g>
  </g>
</svg>