<?xml version="1.0" encoding="UTF-8" standalone="no"?>
<svg
   width="800px"
   height="800px"
   viewBox="0 0 24 24"
   version="1.1"
   id="svg3"
   sodipodi:docname="clear-icons.svg"
   inkscape:version="1.4 (86a8ad7, 2024-10-11)"
   xmlns:inkscape="http://www.inkscape.org/namespaces/inkscape"
   xmlns:sodipodi="http://sodipodi.sourceforge.net/DTD/sodipodi-0.dtd"
   xmlns="http://www.w3.org/2000/svg"
   xmlns:svg="http://www.w3.org/2000/svg">
  <defs
     id="defs3" />
  <sodipodi:namedview
     id="namedview3"
     pagecolor="#000000"
     bordercolor="#000000"
     borderopacity="0.25"
     inkscape:showpageshadow="2"
     inkscape:pageopacity="0.0"
     inkscape:pagecheckerboard="0"
     inkscape:deskcolor="#d1d1d1"
     inkscape:zoom="0.70710678"
     inkscape:cx="552.2504"
     inkscape:cy="553.66461"
     inkscape:window-width="1920"
     inkscape:window-height="1027"
     inkscape:window-x="2152"
     inkscape:window-y="1424"
     inkscape:window-maximized="1"
     inkscape:current-layer="svg3" />
  <!-- Person part - original size -->
  <path
     fill="#ffffff"
     d="M1,20a1,1,0,0,0,1,1h8a1,1,0,0,0,0-2H3.071A7.011,7.011,0,0,1,10,13a5.044,5.044,0,1,0-3.377-1.337A9.01,9.01,0,0,0,1,20ZM10,5A3,3,0,1,1,7,8,3,3,0,0,1,10,5Z"
     id="path1"
     style="fill:#ffffff;fill-opacity:1" />
  <!-- Garbage can - lid shifted right -->
  <path
     d="m 17.03,10.327574 h -2 v 2 h 6 v -2 h -2 V 9.3275736 h -2 z"
     fill="#ffffff"
     id="path2" />
  <path
     fill-rule="evenodd"
     clip-rule="evenodd"
     d="m 14.97,13.01 h 6 v 8 h -6 z m 2,2 h 2 v 4 h -2 z"
     fill="#ffffff"
     id="path3" />
</svg>
