<?xml version="1.0" encoding="UTF-8" standalone="no"?>
<svg
   width="800px"
   height="800px"
   viewBox="0 0 24 24"
   version="1.1"
   id="svg2"
   sodipodi:docname="move-icon.svg"
   inkscape:version="1.4 (86a8ad7, 2024-10-11)"
   xmlns:inkscape="http://www.inkscape.org/namespaces/inkscape"
   xmlns:sodipodi="http://sodipodi.sourceforge.net/DTD/sodipodi-0.dtd"
   xmlns="http://www.w3.org/2000/svg"
   xmlns:svg="http://www.w3.org/2000/svg">
  <defs
     id="defs2" />
  <sodipodi:namedview
     id="namedview2"
     pagecolor="#000000"
     bordercolor="#000000"
     borderopacity="0.25"
     inkscape:showpageshadow="2"
     inkscape:pageopacity="0.0"
     inkscape:pagecheckerboard="0"
     inkscape:deskcolor="#d1d1d1"
     inkscape:zoom="1.03125"
     inkscape:cx="400"
     inkscape:cy="420.36364"
     inkscape:window-width="1920"
     inkscape:window-height="1027"
     inkscape:window-x="2152"
     inkscape:window-y="1424"
     inkscape:window-maximized="1"
     inkscape:current-layer="svg2" />
  <!-- Person part - original size -->
  <path
     fill="#ffffff"
     d="M1,20a1,1,0,0,0,1,1h8a1,1,0,0,0,0-2H3.071A7.011,7.011,0,0,1,10,13a5.044,5.044,0,1,0-3.377-1.337A9.01,9.01,0,0,0,1,20ZM10,5A3,3,0,1,1,7,8,3,3,0,0,1,10,5Z"
     id="path1" />
  <!-- Move arrows - scaled and positioned to match original icon size -->
  <path
     fill="none"
     stroke="#ffffff"
     stroke-width="1.22484"
     stroke-linecap="round"
     stroke-linejoin="round"
     d="m 16.834545,10.476539 v 3.733505 m 0,-3.733505 1.926753,1.866753 m -1.926753,-1.866753 -1.926752,1.866753 m 1.926752,8.089259 v -3.733505 m 0,3.733505 1.926753,-1.866752 m -1.926753,1.866752 -1.926752,-1.866752 m -3.211254,-3.111254 h 3.853505 m -3.853505,0 1.926752,1.866753 m -1.926752,-1.866753 1.926752,-1.866752 m 8.34926,1.866752 h -3.853505 m 3.853505,0 -1.926752,1.866753 m 1.926752,-1.866753 -1.926752,-1.866752"
     id="path2"
     style="stroke-width:1.09006;stroke-dasharray:none" />
</svg>
